<svg width="314" height="23" viewBox="0 0 314 23" fill="none" xmlns="http://www.w3.org/2000/svg">
<line x1="193" y1="10" x2="314" y2="10" stroke="#777777" stroke-opacity="0.5" stroke-width="2" stroke-dasharray="2 2"/>
<line y1="10" x2="121" y2="10" stroke="#777777" stroke-opacity="0.5" stroke-width="2" stroke-dasharray="2 2"/>
<path d="M152.351 17.105C151.381 17.105 150.496 16.88 149.696 16.43C148.896 15.97 148.261 15.335 147.791 14.525C147.331 13.705 147.101 12.785 147.101 11.765C147.101 10.745 147.331 9.83 147.791 9.02C148.261 8.2 148.896 7.565 149.696 7.115C150.496 6.655 151.381 6.425 152.351 6.425C153.331 6.425 154.221 6.655 155.021 7.115C155.821 7.565 156.451 8.195 156.911 9.005C157.371 9.815 157.601 10.735 157.601 11.765C157.601 12.795 157.371 13.715 156.911 14.525C156.451 15.335 155.821 15.97 155.021 16.43C154.221 16.88 153.331 17.105 152.351 17.105ZM152.351 15.92C153.081 15.92 153.736 15.75 154.316 15.41C154.906 15.07 155.366 14.585 155.696 13.955C156.036 13.325 156.206 12.595 156.206 11.765C156.206 10.925 156.036 10.195 155.696 9.575C155.366 8.945 154.911 8.46 154.331 8.12C153.751 7.78 153.091 7.61 152.351 7.61C151.611 7.61 150.951 7.78 150.371 8.12C149.791 8.46 149.331 8.945 148.991 9.575C148.661 10.195 148.496 10.925 148.496 11.765C148.496 12.595 148.661 13.325 148.991 13.955C149.331 14.585 149.791 15.07 150.371 15.41C150.961 15.75 151.621 15.92 152.351 15.92ZM164.908 17L162.418 12.725H160.768V17H159.403V6.545H162.778C163.568 6.545 164.233 6.68 164.773 6.95C165.323 7.22 165.733 7.585 166.003 8.045C166.273 8.505 166.408 9.03 166.408 9.62C166.408 10.34 166.198 10.975 165.778 11.525C165.368 12.075 164.748 12.44 163.918 12.62L166.543 17H164.908ZM160.768 11.63H162.778C163.518 11.63 164.073 11.45 164.443 11.09C164.813 10.72 164.998 10.23 164.998 9.62C164.998 9 164.813 8.52 164.443 8.18C164.083 7.84 163.528 7.67 162.778 7.67H160.768V11.63Z" fill="#777777" fill-opacity="0.5"/>
</svg>
